<?xml version="1.0" encoding="UTF-8" standalone="no"?>
<svg
   width="456"
   height="456"
   viewBox="0 0 456 456"
   version="1.1"
   xml:space="preserve"
   style="fill-rule:evenodd;clip-rule:evenodd;stroke-linejoin:round;stroke-miterlimit:2;"
   id="svg4"
   sodipodi:docname="splash.svg"
   inkscape:version="1.3 (0e150ed6c4, 2023-07-21)"
   xmlns:inkscape="http://www.inkscape.org/namespaces/inkscape"
   xmlns:sodipodi="http://sodipodi.sourceforge.net/DTD/sodipodi-0.dtd"
   xmlns="http://www.w3.org/2000/svg"
   xmlns:svg="http://www.w3.org/2000/svg"><defs
   id="defs4"><filter
     inkscape:collect="always"
     style="color-interpolation-filters:sRGB"
     id="filter5894"
     x="-0.047770282"
     width="1.0893876"
     y="-0.076669722"
     height="1.1526448"><feGaussianBlur
       inkscape:collect="always"
       stdDeviation="0.042311643"
       id="feGaussianBlur5896" /></filter></defs><sodipodi:namedview
   id="namedview4"
   pagecolor="#ffffff"
   bordercolor="#000000"
   borderopacity="0.25"
   inkscape:showpageshadow="2"
   inkscape:pageopacity="0.0"
   inkscape:pagecheckerboard="0"
   inkscape:deskcolor="#d1d1d1"
   inkscape:zoom="0.89144737"
   inkscape:cx="150.31734"
   inkscape:cy="248.47232"
   inkscape:window-width="1920"
   inkscape:window-height="1009"
   inkscape:window-x="-8"
   inkscape:window-y="-8"
   inkscape:window-maximized="1"
   inkscape:current-layer="svg4" />&#10;    &#10;    &#10;    &#10;    &#10;<g
   id="g2908"
   transform="matrix(5.6452302,0,0,5.6452302,180.98582,-4795.2393)"><path
     d="m -3.5791249,864.49499 c 0.8171367,-0.12811 0.8841368,1.77681 0.4016593,2.44863 -0.4065102,0.56605 -2.0631003,0.33842 -2.0631003,0.33842 -0.5279334,0.0866 -0.8801263,0.24434 -1.0566309,0.47293 -0.1776274,0.22175 -0.2277027,0.56878 -0.1502161,1.04116 l 0.1333144,0.81272 c 0,0 2.105172,0.0342 3.1884283,-0.52301 0.801246,-0.41214 1.3366937,2.72584 0.4375518,2.66745 -1.3692225,-0.0889 -3.1884283,0.52301 -3.1884283,0.52301 0,0 2.0452101,6.37512 1.4767363,9.00262 -0.2664503,1.23154 -3.0410138,1.6667 -3.7302538,0.61189 -1.4623382,-2.23797 -1.4767363,-9.00262 -1.4767363,-9.00262 0,0 -1.6615925,0.90022 -1.8547055,0.30423 -0.278948,-0.8609 -0.444802,-1.59757 -0.437552,-2.66744 0.0042,-0.62648 1.854706,-0.30424 1.854706,-0.30424 l -0.133315,-0.81272 c -0.208522,-1.27121 -0.0081,-2.2671 0.6013254,-2.98768 0.6082704,-0.72751 1.6556738,-1.21319 3.1422174,-1.45704 0,0 1.6272845,-0.27523 2.8549993,-0.46831 z"
     style="font-style:normal;font-variant:normal;font-weight:bold;font-stretch:normal;font-size:11.9512px;line-height:1.25;font-family:'verdana pro';-inkscape-font-specification:'verdana pro Bold';letter-spacing:0px;word-spacing:0px;fill:#004cff;fill-opacity:1;stroke:#004cff;stroke-width:0.540618;stroke-opacity:1"
     id="path2439"
     inkscape:connector-curvature="0"
     sodipodi:nodetypes="ssscscsscsscsscscss" /><path
     sodipodi:nodetypes="ssscscsscsscsscscss"
     inkscape:connector-curvature="0"
     id="path2441"
     style="font-style:normal;font-variant:normal;font-weight:bold;font-stretch:normal;font-size:11.9512px;line-height:1.25;font-family:'verdana pro';-inkscape-font-specification:'verdana pro Bold';letter-spacing:0px;word-spacing:0px;fill:#008fff;fill-opacity:1;stroke:#004cff;stroke-width:0.540618;stroke-opacity:1"
     d="m -4.1082949,863.96582 c 0.8171367,-0.12811 0.8841368,1.77681 0.4016593,2.44863 -0.4065102,0.56605 -2.0631003,0.33842 -2.0631003,0.33842 -0.5279334,0.0866 -0.8801263,0.24434 -1.0566309,0.47293 -0.1776274,0.22175 -0.2277027,0.56878 -0.1502161,1.04116 l 0.1333144,0.81272 c 0,0 2.105172,0.0342 3.1884283,-0.52301 0.801246,-0.41214 1.3366937,2.72584 0.4375518,2.66745 -1.3692225,-0.0889 -3.1884283,0.52301 -3.1884283,0.52301 0,0 2.0452101,6.37512 1.4767363,9.00262 -0.2664503,1.23154 -3.0410138,1.6667 -3.7302538,0.61189 -1.4623378,-2.23797 -1.4767368,-9.00262 -1.4767368,-9.00262 0,0 -1.661592,0.90022 -1.854705,0.30423 -0.278948,-0.8609 -0.444802,-1.59757 -0.437552,-2.66744 0.0042,-0.62648 1.854706,-0.30424 1.854706,-0.30424 l -0.133315,-0.81272 c -0.208522,-1.27121 -0.0081,-2.2671 0.601325,-2.98768 0.6082708,-0.72751 1.6556742,-1.21319 3.1422178,-1.45704 0,0 1.6272845,-0.27523 2.8549993,-0.46831 z" /><path
     d="m 3.7702715,875.99245 c -0.7620193,-0.0384 -1.3426919,0.0466 -1.7420099,0.2553 -0.3925151,0.20897 -0.5999737,0.53564 -0.6223771,0.97998 -0.020579,0.40832 0.1163018,0.73729 0.410663,0.98691 0.3014687,0.24396 0.7277551,0.37983 1.2788601,0.40762 0.6871791,0.0346 1.276398,-0.15237 1.7676556,-0.56104 0.4915602,-0.41467 0.7538401,-0.94927 0.7868397,-1.60378 l 0.01862,-0.36929 z m 5.6437922,-0.93449 c 0,0 0.9660823,4.75466 -0.2901828,5.7555 -1.2562646,1.00086 -3.0785913,0.40562 -3.6842361,-0.18574 -0.6056441,-0.59138 0.075385,-1.49519 0.075385,-1.49519 -0.5207511,0.5878 -1.0944108,1.00736 -1.7209778,1.2587 -0.6262658,0.24535 -1.3782407,0.34589 -2.2559264,0.30164 -1.18385583,-0.0597 -2.13129837,-0.41146 -2.8423306,-1.05533 -0.7039249,-0.64954 -1.0313648,-1.46067 -0.9823208,-2.43343 0.059639,-1.18293 0.5626412,-2.02746 1.50900183,-2.53358 C 0.1756404,874.16475 1.638767,873.9616 3.611858,874.06108 l 2.1533907,0.10857 0.012713,-0.2522 c 0.025734,-0.5104 -0.183422,-0.89418 -0.6274678,-1.15135 -0.4437412,-0.26317 -1.1486787,-0.41911 -2.1148146,-0.46783 -0.7824313,-0.0394 -1.5139169,-0.007 -2.19445223,0.097 -0.6805353,0.10416 -1.93843117,1.10716 -1.90917107,0.52682 l 0.12397499,-2.45893 c 0.0358377,-0.71071 1.58310135,-0.21516 2.37657451,-0.25944 0.793777,-0.0503 1.5852845,-0.0556 2.3745216,-0.0157 2.061541,0.10394 3.5299964,0.53917 4.4053717,1.3057 0.882481,0.76087 1.2830017,1.94893 1.2015628,3.56421 z"
     style="font-style:normal;font-variant:normal;font-weight:bold;font-stretch:normal;font-size:21.3117px;line-height:1;font-family:'verdana pro';-inkscape-font-specification:'verdana pro Bold';text-align:center;letter-spacing:0px;word-spacing:0px;text-anchor:middle;fill:#004cff;fill-opacity:1;stroke:#004cff;stroke-width:0.515;stroke-miterlimit:4;stroke-dasharray:none;stroke-opacity:1"
     id="path2443"
     inkscape:connector-curvature="0"
     sodipodi:nodetypes="scscscscsszzccscscscscsssscscs" /><path
     sodipodi:nodetypes="scscscscsszzccscscscscsssscscs"
     inkscape:connector-curvature="0"
     id="path2445"
     style="font-style:normal;font-variant:normal;font-weight:bold;font-stretch:normal;font-size:21.3117px;line-height:1;font-family:'verdana pro';-inkscape-font-specification:'verdana pro Bold';text-align:center;letter-spacing:0px;word-spacing:0px;text-anchor:middle;fill:#008fff;fill-opacity:1;stroke:#004cff;stroke-width:0.515;stroke-miterlimit:4;stroke-dasharray:none;stroke-opacity:1"
     d="m 2.7123292,876.02124 c -0.7620193,-0.0384 -1.3426919,0.0466 -1.74200986,0.25531 -0.39251514,0.20896 -0.59997366,0.53563 -0.62237711,0.97997 -0.0205788,0.40832 0.11630177,0.73729 0.41066301,0.98692 0.30146876,0.24395 0.72775506,0.37983 1.27886006,0.40761 0.6871792,0.0346 1.276398,-0.15237 1.7676557,-0.56103 0.4915602,-0.41468 0.7538401,-0.94928 0.7868397,-1.60379 l 0.01862,-0.36929 z m 5.6437923,-0.93449 c 0,0 0.9660823,4.75467 -0.2901828,5.7555 -1.2562646,1.00086 -3.0785914,0.40562 -3.6842362,-0.18574 -0.605644,-0.59137 0.075385,-1.49519 0.075385,-1.49519 -0.5207512,0.5878 -1.0944109,1.00736 -1.7209779,1.2587 -0.6262658,0.24535 -1.3782407,0.3459 -2.25592639,0.30165 -1.18385579,-0.0597 -2.13129831,-0.41147 -2.84233051,-1.05533 -0.703925,-0.64954 -1.0313649,-1.46068 -0.9823208,-2.43344 0.059639,-1.18293 0.5626411,-2.02746 1.5090018,-2.53358 0.95316454,-0.50578 2.41629118,-0.70893 4.3893822,-0.60945 l 2.1533907,0.10857 0.012713,-0.2522 c 0.025734,-0.5104 -0.183422,-0.89418 -0.6274678,-1.15134 -0.4437412,-0.26318 -1.1486786,-0.41912 -2.1148145,-0.46783 -0.7824313,-0.0394 -1.51391698,-0.007 -2.19445228,0.097 -0.68053531,0.10415 -1.93843112,1.10715 -1.90917112,0.52681 l 0.123975,-2.45893 c 0.035838,-0.71071 1.58310138,-0.21516 2.37657458,-0.25943 0.79377692,-0.0503 1.58528452,-0.0556 2.37452162,-0.0157 2.0615409,0.10394 3.5299964,0.53917 4.4053716,1.3057 0.882481,0.76087 1.2830018,1.94894 1.2015629,3.56421 z" /><path
     d="m -21.508954,873.76686 c 0,0 1.437535,-3.35719 3.516693,-1.22938 2.079159,2.12781 4.643395,11.79331 4.643395,11.79331 l -3.516694,1.22939 z"
     style="font-style:normal;font-variant:normal;font-weight:bold;font-stretch:normal;font-size:21.3117px;line-height:1;font-family:'verdana pro';-inkscape-font-specification:'verdana pro Bold';text-align:center;letter-spacing:0px;word-spacing:0px;text-anchor:middle;fill:#004cff;fill-opacity:1;stroke:#004cff;stroke-width:0.515;stroke-miterlimit:4;stroke-dasharray:none;stroke-opacity:1"
     id="path2447"
     inkscape:connector-curvature="0"
     sodipodi:nodetypes="czccc" /><path
     sodipodi:nodetypes="czccc"
     inkscape:connector-curvature="0"
     id="path2449"
     style="font-style:normal;font-variant:normal;font-weight:bold;font-stretch:normal;font-size:21.3117px;line-height:1;font-family:'verdana pro';-inkscape-font-specification:'verdana pro Bold';text-align:center;letter-spacing:0px;word-spacing:0px;text-anchor:middle;fill:#008fff;fill-opacity:1;stroke:#004cff;stroke-width:0.515;stroke-miterlimit:4;stroke-dasharray:none;stroke-opacity:1"
     d="m -22.567288,873.76686 c 0,0 1.437535,-3.35719 3.516693,-1.22938 2.079159,2.12781 4.643395,11.79331 4.643395,11.79331 l -3.516694,1.22939 z" /><path
     d="m 18.664809,874.72897 c -0.262522,-0.16549 -0.53047,-0.29885 -0.803842,-0.40009 -0.266461,-0.10557 -0.540898,-0.18221 -0.823313,-0.2299 -0.829219,-0.14003 -1.509398,-0.01 -2.040535,0.39064 -0.524227,0.39612 -0.860937,1.03594 -1.010134,1.91945 0,0 0.561305,3.35273 -0.699869,4.14447 -0.874999,0.54931 -2.971724,0.45628 -3.226743,-0.54489 -0.6022772,-2.36445 -0.2629922,-7.15613 1.519096,-8.99576 0.758967,-0.78347 2.594625,-0.34409 3.226742,0.5449 0.289515,0.40716 -0.249565,1.47787 -0.249565,1.47787 0.514073,-0.51899 1.061109,-0.8672 1.641107,-1.04462 0.58691,-0.18177 1.255917,-0.20923 2.007021,-0.0824 0.108159,0.0183 0.224433,0.0434 0.348804,0.0754 0.125286,0.0266 0.305839,0.0737 0.541669,0.14104 z"
     style="font-style:normal;font-variant:normal;font-weight:bold;font-stretch:normal;font-size:21.3117px;line-height:1;font-family:'verdana pro';-inkscape-font-specification:'verdana pro Bold';text-align:center;letter-spacing:0px;word-spacing:0px;text-anchor:middle;fill:#004cff;fill-opacity:1;stroke:#004cff;stroke-width:0.515;stroke-miterlimit:4;stroke-dasharray:none;stroke-opacity:1"
     id="path2451"
     inkscape:connector-curvature="0"
     sodipodi:nodetypes="ccscsssssccsccc" /><path
     sodipodi:nodetypes="ccscsssssccsccc"
     inkscape:connector-curvature="0"
     id="path2453"
     style="font-style:normal;font-variant:normal;font-weight:bold;font-stretch:normal;font-size:21.3117px;line-height:1;font-family:'verdana pro';-inkscape-font-specification:'verdana pro Bold';text-align:center;letter-spacing:0px;word-spacing:0px;text-anchor:middle;fill:#008fff;fill-opacity:1;stroke:#004cff;stroke-width:0.515;stroke-miterlimit:4;stroke-dasharray:none;stroke-opacity:1"
     d="m 17.606475,875.25814 c -0.262522,-0.16549 -0.53047,-0.29885 -0.803842,-0.40009 -0.266461,-0.10557 -0.540898,-0.18221 -0.823313,-0.2299 -0.829219,-0.14003 -1.509398,-0.01 -2.040535,0.39064 -0.524227,0.39612 -0.860937,1.03594 -1.010134,1.91945 0,0 0.561305,3.35273 -0.699869,4.14447 -0.874999,0.54931 -2.9717242,0.45628 -3.2267432,-0.54489 -0.602277,-2.36445 -0.262992,-7.15613 1.5190962,-8.99576 0.758967,-0.78347 2.594625,-0.34409 3.226742,0.5449 0.289515,0.40716 -0.249565,1.47787 -0.249565,1.47787 0.514073,-0.51899 1.061109,-0.8672 1.641107,-1.04462 0.58691,-0.18177 1.255917,-0.20923 2.007021,-0.0824 0.108159,0.0183 0.224433,0.0434 0.348804,0.0754 0.125286,0.0266 0.305839,0.0737 0.541669,0.14104 z" /><text
     transform="matrix(0.92894602,0.23577784,-0.25668988,1.0113378,0,0)"
     id="text2457"
     y="816.12244"
     x="247.6806"
     style="font-style:normal;font-weight:bold;font-size:17.7156px;line-height:1;font-family:'Cambria Math';-inkscape-font-specification:'Cambria Math Bold';text-align:center;letter-spacing:0px;word-spacing:0px;text-anchor:middle;fill:#004cff;fill-opacity:1;stroke:#004cff;stroke-width:0.515;stroke-miterlimit:4;stroke-dasharray:none;stroke-opacity:1"
     xml:space="preserve"><tspan
       id="tspan2455"
       style="font-style:normal;font-variant:normal;font-weight:bold;font-stretch:normal;font-family:'verdana pro';-inkscape-font-specification:'verdana pro Bold';fill:#004cff;fill-opacity:1;stroke:#004cff;stroke-width:0.515;stroke-miterlimit:4;stroke-dasharray:none;stroke-opacity:1"
       y="816.12244"
       x="247.6806"
       sodipodi:role="line">o</tspan></text><text
     xml:space="preserve"
     style="font-style:normal;font-weight:bold;font-size:17.7156px;line-height:1;font-family:'Cambria Math';-inkscape-font-specification:'Cambria Math Bold';text-align:center;letter-spacing:0px;word-spacing:0px;text-anchor:middle;fill:#008fff;fill-opacity:1;stroke:#004cff;stroke-width:0.515;stroke-miterlimit:4;stroke-dasharray:none;stroke-opacity:1"
     x="246.61026"
     y="816.37195"
     id="text2461"
     transform="matrix(0.92894602,0.23577784,-0.25668988,1.0113378,0,0)"><tspan
       sodipodi:role="line"
       x="246.61026"
       y="816.37195"
       style="font-style:normal;font-variant:normal;font-weight:bold;font-stretch:normal;font-family:'verdana pro';-inkscape-font-specification:'verdana pro Bold';fill:#008fff;fill-opacity:1;stroke:#004cff;stroke-width:0.515;stroke-miterlimit:4;stroke-dasharray:none;stroke-opacity:1"
       id="tspan2459">o</tspan></text><path
     d="m -30.74412,870.77567 c 0,0 0.162675,-3.70508 3.348187,-2.45815 3.185513,1.24693 8.504668,17.944 8.504668,17.944 l -3.348188,2.45815 z"
     style="font-style:normal;font-variant:normal;font-weight:bold;font-stretch:normal;font-size:21.3117px;line-height:1;font-family:'verdana pro';-inkscape-font-specification:'verdana pro Bold';text-align:center;letter-spacing:0px;word-spacing:0px;text-anchor:middle;fill:#004cff;fill-opacity:1;stroke:#004cff;stroke-width:0.515;stroke-miterlimit:4;stroke-dasharray:none;stroke-opacity:1"
     id="path2463"
     inkscape:connector-curvature="0"
     sodipodi:nodetypes="czccc" /><path
     sodipodi:nodetypes="czccc"
     inkscape:connector-curvature="0"
     id="path2465"
     style="font-style:normal;font-variant:normal;font-weight:bold;font-stretch:normal;font-size:21.3117px;line-height:1;font-family:'verdana pro';-inkscape-font-specification:'verdana pro Bold';text-align:center;letter-spacing:0px;word-spacing:0px;text-anchor:middle;fill:#008fff;fill-opacity:1;stroke:#004cff;stroke-width:0.515;stroke-miterlimit:4;stroke-dasharray:none;stroke-opacity:1"
     d="m -31.802454,870.77567 c 0,0 0.162675,-3.70508 3.348188,-2.45815 3.185512,1.24693 8.504667,17.944 8.504667,17.944 l -3.348188,2.45815 z" /><path
     d="m 0.40852053,886.50976 c 0,0 -0.905006,-2.93461 0,-3.83961 0.543005,-0.54301 1.94404797,-0.67846 2.30377297,0 1.409995,2.65931 0,9.95741 0,9.95741 H 0.40852053 v -1.0367 c -0.315702,0.42236 -0.663401,0.73167 -1.043096,0.92792 -0.37969703,0.19625 -0.81912003,0.29437 -1.31827103,0.29437 -0.883113,0 -1.608375,-0.34984 -2.175785,-1.04949 -0.567411,-0.70393 -0.851117,-1.60839 -0.851117,-2.71335 0,-1.10496 0.283706,-2.00727 0.851117,-2.70693 0.56741,-0.70393 1.292672,-1.05589 2.175785,-1.05589 0.494885,0 0.932175,0.10029 1.31187103,0.30077 0.383961,0.19625 0.733794,0.50341 1.049496,0.9215 z m -1.51025003,4.63955 c 0.49061803,0 0.86391403,-0.17918 1.11988903,-0.53755 0.26024,-0.35836 0.390361,-0.87884 0.390361,-1.56145 0,-0.68259 -0.130121,-1.20308 -0.390361,-1.56144 -0.255975,-0.35836 -0.629271,-0.53754 -1.11988903,-0.53754 -0.486353,0 -0.859649,0.17918 -1.11989,0.53754 -0.255976,0.35836 -0.383963,0.87885 -0.383963,1.56144 0,0.68261 0.127987,1.20309 0.383963,1.56145 0.260241,0.35837 0.633537,0.53755 1.11989,0.53755 z"
     style="font-style:normal;font-variant:normal;font-weight:bold;font-stretch:normal;font-size:11.3817px;line-height:1;font-family:'verdana pro';-inkscape-font-specification:'verdana pro Bold';text-align:center;letter-spacing:0px;word-spacing:0px;text-anchor:middle;fill:#004cff;fill-opacity:1;stroke:#004cff;stroke-width:0.393177;stroke-opacity:1"
     id="path2467"
     inkscape:connector-curvature="0"
     sodipodi:nodetypes="cssccccscscsccscscscscs" /><path
     sodipodi:nodetypes="cssccccscscsccscscscscs"
     inkscape:connector-curvature="0"
     id="path2469"
     style="font-style:normal;font-variant:normal;font-weight:bold;font-stretch:normal;font-size:11.3817px;line-height:1;font-family:'verdana pro';-inkscape-font-specification:'verdana pro Bold';text-align:center;letter-spacing:0px;word-spacing:0px;text-anchor:middle;fill:#008fff;fill-opacity:1;stroke:#004cff;stroke-width:0.393177;stroke-opacity:1"
     d="m -0.81014247,886.50976 c 0,0 -0.90500703,-2.93461 0,-3.83961 0.543004,-0.54301 1.94404697,-0.67846 2.30377197,0 1.409995,2.65931 0,9.95741 0,9.95741 h -2.30377197 v -1.0367 c -0.31570303,0.42236 -0.66340203,0.73167 -1.04309703,0.92792 -0.379697,0.19625 -0.81912,0.29437 -1.31827,0.29437 -0.883113,0 -1.608375,-0.34984 -2.175786,-1.04949 -0.567411,-0.70393 -0.851117,-1.60839 -0.851117,-2.71335 0,-1.10496 0.283706,-2.00727 0.851117,-2.70693 0.567411,-0.70393 1.292673,-1.05589 2.175786,-1.05589 0.494885,0 0.932174,0.10029 1.31187,0.30077 0.383962,0.19625 0.733794,0.50341 1.04949703,0.9215 z m -1.51025103,4.63955 c 0.490618,0 0.863914,-0.17918 1.119889,-0.53755 0.26024103,-0.35836 0.39036203,-0.87884 0.39036203,-1.56145 0,-0.68259 -0.130121,-1.20308 -0.39036203,-1.56144 -0.255975,-0.35836 -0.629271,-0.53754 -1.119889,-0.53754 -0.486352,0 -0.859649,0.17918 -1.11989,0.53754 -0.255975,0.35836 -0.383963,0.87885 -0.383963,1.56144 0,0.68261 0.127988,1.20309 0.383963,1.56145 0.260241,0.35837 0.633538,0.53755 1.11989,0.53755 z" /><path
     sodipodi:nodetypes="czccc"
     inkscape:connector-curvature="0"
     id="path2471"
     style="font-style:normal;font-variant:normal;font-weight:bold;font-stretch:normal;font-size:21.3117px;line-height:1;font-family:'verdana pro';-inkscape-font-specification:'verdana pro Bold';text-align:center;letter-spacing:0px;word-spacing:0px;text-anchor:middle;fill:#004cff;fill-opacity:1;stroke:#004cff;stroke-width:0.392659;stroke-miterlimit:4;stroke-dasharray:none;stroke-opacity:1"
     d="m 2.6567615,886.56302 c 0,0 1.761179,-1.32959 2.623353,0.025 0.862173,1.35455 0.226457,6.32985 0.226457,6.32985 l -2.623351,-0.025 z" /><path
     d="m 1.4380985,886.56302 c 0,0 1.761179,-1.32959 2.623352,0.025 0.862173,1.35455 0.226457,6.32985 0.226457,6.32985 l -2.623351,-0.025 z"
     style="font-style:normal;font-variant:normal;font-weight:bold;font-stretch:normal;font-size:21.3117px;line-height:1;font-family:'verdana pro';-inkscape-font-specification:'verdana pro Bold';text-align:center;letter-spacing:0px;word-spacing:0px;text-anchor:middle;fill:#008fff;fill-opacity:1;stroke:#004cff;stroke-width:0.392659;stroke-miterlimit:4;stroke-dasharray:none;stroke-opacity:1"
     id="path2473"
     inkscape:connector-curvature="0"
     sodipodi:nodetypes="czccc" /><ellipse
     ry="1.2143086"
     rx="1.1128145"
     cy="884.30029"
     cx="3.9736407"
     id="ellipse2475"
     style="font-style:normal;font-weight:normal;font-size:11.9512px;line-height:1.25;font-family:sans-serif;letter-spacing:0px;word-spacing:0px;opacity:1;vector-effect:none;fill:#004cff;fill-opacity:1;stroke:#004cff;stroke-width:0.358573;stroke-linecap:round;stroke-linejoin:round;stroke-miterlimit:4;stroke-dasharray:none;stroke-dashoffset:0;stroke-opacity:1" /><ellipse
     style="font-style:normal;font-weight:normal;font-size:11.9512px;line-height:1.25;font-family:sans-serif;letter-spacing:0px;word-spacing:0px;opacity:1;vector-effect:none;fill:#008fff;fill-opacity:1;stroke:#004cff;stroke-width:0.358573;stroke-linecap:round;stroke-linejoin:round;stroke-miterlimit:4;stroke-dasharray:none;stroke-dashoffset:0;stroke-opacity:1"
     id="ellipse2477"
     cx="2.7549746"
     cy="884.30029"
     rx="1.1128145"
     ry="1.2143086" /><path
     sodipodi:nodetypes="ccsccc"
     inkscape:connector-curvature="0"
     id="path2479"
     d="m 34.96211,869.23006 3.317414,-2.362 c 0.782972,-0.43049 0.959034,-2.87845 2.070059,-2.83973 0.980685,0.0342 1.326973,2.41509 1.326973,2.41509 l 3.476639,2.99895 c -3.477097,-0.79129 -6.85499,-0.68996 -10.191085,-0.21231 z"
     style="font-style:normal;font-weight:normal;font-size:11.9512px;line-height:1.25;font-family:sans-serif;letter-spacing:0px;word-spacing:0px;fill:#004cff;fill-opacity:1;stroke:#004cff;stroke-width:0.310657px;stroke-linecap:butt;stroke-linejoin:miter;stroke-opacity:1" /><path
     sodipodi:nodetypes="cscsc"
     inkscape:connector-curvature="0"
     id="path2481"
     d="m 58.233548,688.59565 c -0.17001,-0.45203 0.27628,-0.73456 0.56508,-0.51988 l 2.55418,1.89867 c 0,0 -1.05764,-0.28593 -1.53703,-0.48176 -0.60407,-0.24678 -1.58223,-0.89703 -1.58223,-0.89703 z"
     style="font-style:normal;font-weight:normal;font-size:11.9512px;line-height:1.25;font-family:sans-serif;letter-spacing:0px;word-spacing:0px;fill:#0066b5;fill-opacity:1;stroke:#0066b5;stroke-width:0.1;stroke-linecap:butt;stroke-linejoin:miter;stroke-miterlimit:4;stroke-dasharray:none;stroke-opacity:1;filter:url(#filter5894)"
     transform="matrix(1.1741354,0,0,1.1741354,-27.666211,58.881034)" /><ellipse
     ry="0.41552493"
     rx="0.75737429"
     cy="870.81891"
     cx="40.612968"
     id="ellipse2483"
     style="font-style:normal;font-weight:normal;font-size:11.9512px;line-height:1.25;font-family:sans-serif;letter-spacing:0px;word-spacing:0px;opacity:1;vector-effect:none;fill:none;fill-opacity:1;stroke:#008fff;stroke-width:0.286584;stroke-linecap:round;stroke-linejoin:round;stroke-miterlimit:4;stroke-dasharray:none;stroke-dashoffset:0;stroke-opacity:1" /><path
     inkscape:connector-curvature="0"
     id="path2485"
     d="m 36.320456,872.87334 c 0,0.86326 0,0.8445 0,0.8445 l 0.694348,-0.0376 0.03746,-0.88199 z"
     style="font-style:normal;font-weight:normal;font-size:11.9512px;line-height:1.25;font-family:sans-serif;letter-spacing:0px;word-spacing:0px;fill:none;fill-opacity:1;stroke:#004cff;stroke-width:0.117414;stroke-linecap:butt;stroke-linejoin:miter;stroke-miterlimit:4;stroke-dasharray:none;stroke-opacity:1" /><path
     style="font-style:normal;font-weight:normal;font-size:11.9512px;line-height:1.25;font-family:sans-serif;letter-spacing:0px;word-spacing:0px;fill:none;fill-opacity:1;stroke:#004cff;stroke-width:0.117414;stroke-linecap:butt;stroke-linejoin:miter;stroke-miterlimit:4;stroke-dasharray:none;stroke-opacity:1"
     d="m 37.108629,872.74198 c 0,0.86326 0,0.8445 0,0.8445 l 0.694349,-0.0376 0.03757,-0.88198 z"
     id="path2487"
     inkscape:connector-curvature="0" /><path
     inkscape:connector-curvature="0"
     id="path2489"
     d="m 37.953103,872.70444 c 0,0.86326 0,0.8445 0,0.8445 l 0.694348,-0.0376 0.03757,-0.88199 z"
     style="font-style:normal;font-weight:normal;font-size:11.9512px;line-height:1.25;font-family:sans-serif;letter-spacing:0px;word-spacing:0px;fill:none;fill-opacity:1;stroke:#004cff;stroke-width:0.117414;stroke-linecap:butt;stroke-linejoin:miter;stroke-miterlimit:4;stroke-dasharray:none;stroke-opacity:1" /><path
     style="font-style:normal;font-weight:normal;font-size:11.9512px;line-height:1.25;font-family:sans-serif;letter-spacing:0px;word-spacing:0px;fill:none;fill-opacity:1;stroke:#004cff;stroke-width:0.129803;stroke-linecap:butt;stroke-linejoin:miter;stroke-miterlimit:4;stroke-dasharray:none;stroke-opacity:1"
     d="m 38.803353,872.61603 c 0,0.85106 0,0.83256 0,0.83256 l 0.860782,-0.037 0.0465,-0.86952 z"
     id="path2491"
     inkscape:connector-curvature="0" /><path
     inkscape:connector-curvature="0"
     id="path2493"
     d="m 39.867249,872.62938 c 0,0.86326 0,0.8445 0,0.8445 l 0.694348,-0.0376 0.03757,-0.88199 z"
     style="font-style:normal;font-weight:normal;font-size:11.9512px;line-height:1.25;font-family:sans-serif;letter-spacing:0px;word-spacing:0px;fill:none;fill-opacity:1;stroke:#004cff;stroke-width:0.117414;stroke-linecap:butt;stroke-linejoin:miter;stroke-miterlimit:4;stroke-dasharray:none;stroke-opacity:1" /><path
     style="font-style:normal;font-weight:normal;font-size:11.9512px;line-height:1.25;font-family:sans-serif;letter-spacing:0px;word-spacing:0px;fill:none;fill-opacity:1;stroke:#004cff;stroke-width:0.128625;stroke-linecap:butt;stroke-linejoin:miter;stroke-miterlimit:4;stroke-dasharray:none;stroke-opacity:1"
     d="m 40.867084,872.58742 c 0,0.85222 0,0.83369 0,0.83369 l 0.844086,0.0869 0.04556,-0.86401 z"
     id="path2495"
     inkscape:connector-curvature="0" /><path
     inkscape:connector-curvature="0"
     id="path2497"
     d="m 41.955707,872.65873 c -0.05295,0.8551 -0.05178,0.83652 -0.05178,0.83652 l 0.695335,0.0906 0.09158,-0.8667 z"
     style="font-style:normal;font-weight:normal;font-size:11.9512px;line-height:1.25;font-family:sans-serif;letter-spacing:0px;word-spacing:0px;fill:none;fill-opacity:1;stroke:#004cff;stroke-width:0.117414;stroke-linecap:butt;stroke-linejoin:miter;stroke-miterlimit:4;stroke-dasharray:none;stroke-opacity:1" /><path
     style="font-style:normal;font-weight:normal;font-size:11.9512px;line-height:1.25;font-family:sans-serif;letter-spacing:0px;word-spacing:0px;fill:none;fill-opacity:1;stroke:#004cff;stroke-width:0.117414;stroke-linecap:butt;stroke-linejoin:miter;stroke-miterlimit:4;stroke-dasharray:none;stroke-opacity:1"
     d="m 42.931531,872.75256 c -0.05295,0.8551 -0.05178,0.83651 -0.05178,0.83651 l 0.695347,0.0906 0.09158,-0.8667 z"
     id="path2499"
     inkscape:connector-curvature="0" /><path
     inkscape:connector-curvature="0"
     id="path2501"
     d="m 43.832304,872.84638 c -0.05295,0.8551 -0.05178,0.83652 -0.05178,0.83652 l 0.695346,0.0906 0.09158,-0.8667 z"
     style="font-style:normal;font-weight:normal;font-size:11.9512px;line-height:1.25;font-family:sans-serif;letter-spacing:0px;word-spacing:0px;fill:none;fill-opacity:1;stroke:#004cff;stroke-width:0.117414;stroke-linecap:butt;stroke-linejoin:miter;stroke-miterlimit:4;stroke-dasharray:none;stroke-opacity:1" /><path
     sodipodi:nodetypes="cccccc"
     inkscape:connector-curvature="0"
     id="path2503"
     d="m 36.264156,873.71784 c -0.204558,-0.0909 -0.282614,0.94196 0.03757,1.03212 0.07503,-0.24991 8.031897,-0.25664 8.031897,-0.0376 0.209183,-0.30652 0.196902,-0.61303 0.05636,-0.91955 -2.708589,-0.23869 -5.417191,-0.33459 -8.12578,-0.075 z"
     style="font-style:normal;font-weight:normal;font-size:11.9512px;line-height:1.25;font-family:sans-serif;letter-spacing:0px;word-spacing:0px;fill:#004cff;fill-opacity:1;stroke:#004cff;stroke-width:0.0763188;stroke-linecap:butt;stroke-linejoin:miter;stroke-miterlimit:4;stroke-dasharray:none;stroke-opacity:1" /><path
     style="font-style:normal;font-weight:normal;font-size:11.9512px;line-height:1.25;font-family:sans-serif;letter-spacing:0px;word-spacing:0px;fill:#004cff;fill-opacity:1;stroke:#004cff;stroke-width:0.234827;stroke-linecap:butt;stroke-linejoin:miter;stroke-miterlimit:4;stroke-dasharray:none;stroke-opacity:1"
     d="m 43.606553,869.73639 c -0.0082,-0.0657 0.186476,-0.0652 0.199051,0 0.09522,0.49328 0.01573,1.79138 0,2.46813 -6.57e-4,0.0282 -0.179678,0.0215 -0.179138,0 0.01209,-0.48374 0.06329,-1.84181 -0.01996,-2.46813 z"
     id="path2505"
     inkscape:connector-curvature="0"
     sodipodi:nodetypes="sssss" /><path
     sodipodi:nodetypes="sssss"
     inkscape:connector-curvature="0"
     id="path2507"
     d="m 36.813217,869.69886 c -0.0082,-0.0658 0.186476,-0.0652 0.199051,0 0.09522,0.49327 0.01573,1.79137 0,2.46812 -6.58e-4,0.0282 -0.179678,0.0215 -0.179138,0 0.01209,-0.48374 0.06329,-1.8418 -0.01996,-2.46812 z"
     style="font-style:normal;font-weight:normal;font-size:11.9512px;line-height:1.25;font-family:sans-serif;letter-spacing:0px;word-spacing:0px;fill:#484848;fill-opacity:1;stroke:#004cff;stroke-width:0.234827;stroke-linecap:butt;stroke-linejoin:miter;stroke-miterlimit:4;stroke-dasharray:none;stroke-opacity:1" /><path
     style="font-style:normal;font-weight:normal;font-size:11.9512px;line-height:1.25;font-family:sans-serif;letter-spacing:0px;word-spacing:0px;fill:#484848;fill-opacity:1;stroke:#004cff;stroke-width:0.122365;stroke-linecap:butt;stroke-linejoin:miter;stroke-miterlimit:4;stroke-dasharray:none;stroke-opacity:1"
     d="m 36.271295,874.92698 c -0.0047,-0.0343 0.09722,-0.0339 0.103676,0 0.04967,0.25704 0.0082,0.93346 0,1.28611 -3.52e-4,0.0147 -0.09358,0.0117 -0.09334,0 0.0059,-0.25208 0.03299,-0.95975 -0.01057,-1.28611 z"
     id="path2509"
     inkscape:connector-curvature="0"
     sodipodi:nodetypes="sssss" /><path
     sodipodi:nodetypes="sssss"
     inkscape:connector-curvature="0"
     id="path2511"
     d="m 44.286166,874.95351 c -0.0047,-0.0343 0.09722,-0.0339 0.103676,0 0.04967,0.25704 0.0082,0.93346 0,1.28611 -3.52e-4,0.0147 -0.09358,0.0118 -0.09334,0 0.0059,-0.25207 0.03299,-0.95975 -0.01057,-1.28611 z"
     style="font-style:normal;font-weight:normal;font-size:11.9512px;line-height:1.25;font-family:sans-serif;letter-spacing:0px;word-spacing:0px;fill:#484848;fill-opacity:1;stroke:#004cff;stroke-width:0.122365;stroke-linecap:butt;stroke-linejoin:miter;stroke-miterlimit:4;stroke-dasharray:none;stroke-opacity:1" /><path
     style="font-style:normal;font-weight:normal;font-size:11.9512px;line-height:1.25;font-family:sans-serif;letter-spacing:0px;word-spacing:0px;fill:#484848;fill-opacity:1;stroke:#004cff;stroke-width:0.122365;stroke-linecap:butt;stroke-linejoin:miter;stroke-miterlimit:4;stroke-dasharray:none;stroke-opacity:1"
     d="m 44.66338,878.38841 c -0.0082,-0.0335 0.09264,-0.0451 0.102972,-0.0121 0.07937,0.24946 0.117437,0.92608 0.150548,1.27727 0.0012,0.0147 -0.09158,0.0227 -0.09276,0.0106 -0.02372,-0.25103 -0.07961,-0.95701 -0.161044,-1.27603 z"
     id="path2513"
     inkscape:connector-curvature="0"
     sodipodi:nodetypes="sssss" /><path
     sodipodi:nodetypes="sssss"
     inkscape:connector-curvature="0"
     id="path2515"
     d="m 35.858128,878.50674 c -0.0023,-0.0344 0.09945,-0.027 0.103441,0.007 0.03147,0.25991 -0.05741,0.93174 -0.09041,1.28293 -0.0012,0.0147 -0.09417,0.005 -0.09311,-0.007 0.02348,-0.25104 0.100389,-0.95505 0.07984,-1.28367 z"
     style="font-style:normal;font-weight:normal;font-size:11.9512px;line-height:1.25;font-family:sans-serif;letter-spacing:0px;word-spacing:0px;fill:#484848;fill-opacity:1;stroke:#004cff;stroke-width:0.122365;stroke-linecap:butt;stroke-linejoin:miter;stroke-miterlimit:4;stroke-dasharray:none;stroke-opacity:1" /><path
     style="font-style:normal;font-weight:normal;font-size:11.9512px;line-height:1.25;font-family:sans-serif;letter-spacing:0px;word-spacing:0px;fill:#004cff;fill-opacity:1;stroke:#004cff;stroke-width:0.084254;stroke-linecap:butt;stroke-linejoin:miter;stroke-miterlimit:4;stroke-dasharray:none;stroke-opacity:1"
     d="m 36.042702,876.51529 c -0.225821,-0.10027 -0.462128,1.50906 -0.108725,1.60859 0.08289,-0.2759 9.0922,-0.15197 9.0922,0.0899 0.230928,-0.33839 0.06728,-1.38988 -0.08794,-1.72827 -2.990206,-0.2635 -5.905373,-0.25679 -8.89559,0.0298 z"
     id="path2517"
     inkscape:connector-curvature="0"
     sodipodi:nodetypes="cccccc" /><path
     sodipodi:nodetypes="cccccc"
     inkscape:connector-curvature="0"
     id="path2519"
     d="m 35.242282,880.12177 c -0.259155,-0.0998 -0.642933,1.22106 -0.237339,1.32017 0.987976,-0.28662 9.767221,-0.46747 10.622074,-0.15438 0.265026,-0.33693 0.0023,-0.85843 -0.175921,-1.19537 -3.431645,-0.26237 -6.777145,-0.25567 -10.20879,0.0297 z"
     style="font-style:normal;font-weight:normal;font-size:11.9512px;line-height:1.25;font-family:sans-serif;letter-spacing:0px;word-spacing:0px;fill:#008fff;fill-opacity:1;stroke:#008fff;stroke-width:0.0900641;stroke-linecap:butt;stroke-linejoin:miter;stroke-miterlimit:4;stroke-dasharray:none;stroke-opacity:1" /><path
     style="font-style:normal;font-weight:normal;font-size:11.9512px;line-height:1.25;font-family:sans-serif;letter-spacing:0px;word-spacing:0px;fill:#008fff;fill-opacity:1;stroke:#008fff;stroke-width:0.0965536;stroke-linecap:butt;stroke-linejoin:miter;stroke-miterlimit:4;stroke-dasharray:none;stroke-opacity:1"
     d="m 34.57751,887.38661 c -0.299122,-0.0993 -0.742077,1.21587 -0.273937,1.31456 1.14032,-0.28541 11.273308,-0.46549 12.259981,-0.15372 0.305886,-0.33551 0.0023,-0.85479 -0.203055,-1.1903 -3.960805,-0.26125 -7.822172,-0.25459 -11.782965,0.0296 z"
     id="path2521"
     inkscape:connector-curvature="0"
     sodipodi:nodetypes="cccccc" /><path
     inkscape:transform-center-y="-2.4650132"
     inkscape:transform-center-x="0.28329952"
     sodipodi:nodetypes="sssss"
     inkscape:connector-curvature="0"
     id="path2523"
     d="m 45.267831,881.92874 c -0.01685,-0.1268 0.05217,-0.1086 0.07025,0.0169 0.138963,0.95638 0.388244,3.44346 0.527208,4.74241 0.0059,0.0544 -0.05881,0.0256 -0.06352,-0.0178 -0.09937,-0.92851 -0.371068,-3.53333 -0.534382,-4.74419 z"
     style="font-style:normal;font-weight:normal;font-size:11.9512px;line-height:1.25;font-family:sans-serif;letter-spacing:0px;word-spacing:0px;fill:#484848;fill-opacity:1;stroke:#004cff;stroke-width:0.19077;stroke-linecap:butt;stroke-linejoin:miter;stroke-miterlimit:4;stroke-dasharray:none;stroke-opacity:1" /><path
     inkscape:connector-curvature="0"
     id="path2525"
     d="m 36.839764,878.74771 c 0.02325,-0.007 0.703295,-0.0134 0.703295,-0.0134 l 0.01656,0.37819 -0.703296,0.004 z"
     style="font-style:normal;font-weight:normal;font-size:11.9512px;line-height:1.25;font-family:sans-serif;letter-spacing:0px;word-spacing:0px;fill:#004cff;fill-opacity:1;stroke:#004cff;stroke-width:0.0117414;stroke-linecap:butt;stroke-linejoin:miter;stroke-miterlimit:4;stroke-dasharray:none;stroke-opacity:1" /><path
     style="font-style:normal;font-weight:normal;font-size:11.9512px;line-height:1.25;font-family:sans-serif;letter-spacing:0px;word-spacing:0px;fill:#004cff;fill-opacity:1;stroke:#004cff;stroke-width:0.0125323;stroke-linecap:butt;stroke-linejoin:miter;stroke-miterlimit:4;stroke-dasharray:none;stroke-opacity:1"
     d="m 38.993175,878.63529 c 0.02654,-0.007 0.802956,-0.0134 0.802956,-0.0134 l 0.0189,0.37739 -0.802944,0.004 z"
     id="path2527"
     inkscape:connector-curvature="0" /><path
     inkscape:connector-curvature="0"
     id="path2529"
     d="m 40.818768,878.57218 c 0.03029,-0.008 0.917634,-0.0156 0.917634,-0.0156 l 0.0216,0.44118 -0.917622,0.005 z"
     style="font-style:normal;font-weight:normal;font-size:11.9512px;line-height:1.25;font-family:sans-serif;letter-spacing:0px;word-spacing:0px;fill:#004cff;fill-opacity:1;stroke:#004cff;stroke-width:0.0144856;stroke-linecap:butt;stroke-linejoin:miter;stroke-miterlimit:4;stroke-dasharray:none;stroke-opacity:1" /><path
     style="font-style:normal;font-weight:normal;font-size:11.9512px;line-height:1.25;font-family:sans-serif;letter-spacing:0px;word-spacing:0px;fill:#004cff;fill-opacity:1;stroke:#004cff;stroke-width:0.0144856;stroke-linecap:butt;stroke-linejoin:miter;stroke-miterlimit:4;stroke-dasharray:none;stroke-opacity:1"
     d="m 42.77604,878.59209 c 0.03029,-0.008 0.917634,-0.0156 0.917634,-0.0156 l 0.0216,0.44118 -0.917634,0.005 z"
     id="path2531"
     inkscape:connector-curvature="0" /><path
     inkscape:connector-curvature="0"
     id="path2533"
     d="m 41.404046,893.22633 c 0.04473,-0.0358 1.353578,-0.0681 1.353578,-0.0681 l 0.03182,1.92357 -1.353566,0.0204 z"
     style="font-style:normal;font-weight:normal;font-size:11.9512px;line-height:1.25;font-family:sans-serif;letter-spacing:0px;word-spacing:0px;fill:#004cff;fill-opacity:1;stroke:#004cff;stroke-width:0.0367356;stroke-linecap:butt;stroke-linejoin:miter;stroke-miterlimit:4;stroke-dasharray:none;stroke-opacity:1" /><path
     sodipodi:nodetypes="sssss"
     inkscape:connector-curvature="0"
     id="path2535"
     d="m 46.273066,889.57319 c -0.06053,-0.67866 0.0058,-0.49839 0.06711,0.17473 0.467124,5.13282 1.584366,18.34184 2.175534,25.25157 0.02449,0.28857 -0.04182,0.0599 -0.06157,-0.17108 -0.422626,-4.93923 -1.602005,-18.78669 -2.182407,-25.26976 z"
     style="font-style:normal;font-weight:normal;font-size:11.9512px;line-height:1.25;font-family:sans-serif;letter-spacing:0px;word-spacing:0px;fill:#484848;fill-opacity:1;stroke:#004cff;stroke-width:0.38414;stroke-linecap:butt;stroke-linejoin:miter;stroke-miterlimit:4;stroke-dasharray:none;stroke-opacity:1" /><path
     inkscape:transform-center-y="-2.5059732"
     inkscape:transform-center-x="-0.35400312"
     style="font-style:normal;font-weight:normal;font-size:11.9512px;line-height:1.25;font-family:sans-serif;letter-spacing:0px;word-spacing:0px;fill:#484848;fill-opacity:1;stroke:#004cff;stroke-width:0.19077;stroke-linecap:butt;stroke-linejoin:miter;stroke-miterlimit:4;stroke-dasharray:none;stroke-opacity:1"
     d="m 35.492074,882.24849 c 0.01518,-0.12703 0.07754,-0.0923 0.06381,0.0338 -0.102819,0.96091 -0.478809,3.43202 -0.666682,4.72481 -0.0083,0.054 -0.06334,0.0106 -0.05714,-0.033 0.134285,-0.92411 0.517764,-3.51483 0.660178,-4.72834 z"
     id="path2537"
     inkscape:connector-curvature="0"
     sodipodi:nodetypes="sssss" /><path
     sodipodi:nodetypes="ccccc"
     style="font-style:normal;font-weight:normal;font-size:11.9512px;line-height:1.25;font-family:sans-serif;letter-spacing:0px;word-spacing:0px;fill:#004cff;fill-opacity:1;stroke:#004cff;stroke-width:0.0751127;stroke-linecap:butt;stroke-linejoin:miter;stroke-miterlimit:4;stroke-dasharray:none;stroke-opacity:1"
     d="m 39.304332,906.78443 c 0.800772,-1.73119 2.39115,-1.0449 2.960066,-0.1196 l 0.0917,3.63852 -3.00648,0.0843 z"
     id="path2539"
     inkscape:connector-curvature="0" /><path
     sodipodi:nodetypes="csscc"
     inkscape:connector-curvature="0"
     id="path2541"
     d="m 40.414911,905.72969 c 0.07503,0 0.616398,-0.11013 0.891392,-0.0375 0.53678,0.14176 1.190151,0.36025 1.35116,0.76941 0.415433,1.05571 0.140004,3.85643 0.159471,3.85643 l -0.459768,10e-5"
     style="font-style:normal;font-weight:normal;font-size:11.9512px;line-height:1.25;font-family:sans-serif;letter-spacing:0px;word-spacing:0px;fill:none;fill-opacity:1;stroke:#004cff;stroke-width:0.0763188;stroke-linecap:butt;stroke-linejoin:miter;stroke-miterlimit:4;stroke-dasharray:none;stroke-opacity:1" /><path
     sodipodi:nodetypes="sssss"
     inkscape:connector-curvature="0"
     id="path2543"
     d="m 34.522578,889.55751 c 0.02079,-0.21344 0.06909,-0.15875 0.04997,0.0528 -0.14651,1.61398 -0.614481,5.77085 -0.85204,7.94506 -0.01021,0.0908 -0.05239,0.0207 -0.04433,-0.0519 0.169774,-1.55418 0.65162,-5.91164 0.84696,-7.95056 z"
     style="font-style:normal;font-weight:normal;font-size:11.9512px;line-height:1.25;font-family:sans-serif;letter-spacing:0px;word-spacing:0px;fill:#484848;fill-opacity:1;stroke:#004cff;stroke-width:0.222609;stroke-linecap:butt;stroke-linejoin:miter;stroke-miterlimit:4;stroke-dasharray:none;stroke-opacity:1" /><path
     d="m -21.408749,904.1312 c 0,0 0.879411,3.41897 0,4.80435 -0.522542,0.82318 -3.012225,0.70575 -2.925098,0 0.05716,-0.46306 -0.774993,-9.1035 0,-12.63185 0.209177,-0.95234 2.235646,-0.68946 2.925098,0 0.315838,0.31584 0,1.33998 0,1.33998 0.403086,-0.53381 0.849749,-0.926 1.339989,-1.17658 0.49024,-0.25601 1.054016,-0.38402 1.691328,-0.38402 1.127552,0 2.053561,0.44939 2.778026,1.34817 0.724466,0.89332 1.086699,2.04539 1.086699,3.45618 0,1.41081 -0.362233,2.5656 -1.086699,3.46437 -0.724465,0.89333 -1.650474,1.33999 -2.778026,1.33999 -0.637312,0 -1.201088,-0.12528 -1.691328,-0.37585 -0.49024,-0.25602 -0.936903,-0.65093 -1.339989,-1.18474 z m 1.944618,-5.92374 c -0.626417,0 -1.108487,0.2315 -1.446207,0.6945 -0.332274,0.45756 -0.498411,1.11938 -0.498411,1.98547 0,0.8661 0.166137,1.53064 0.498411,1.99365 0.33772,0.45755 0.81979,0.68633 1.446207,0.68633 0.626418,0 1.10304,-0.22878 1.429867,-0.68633 0.332274,-0.45756 0.498411,-1.1221 0.498411,-1.99365 0,-0.87153 -0.166137,-1.53608 -0.498411,-1.99364 -0.326827,-0.45755 -0.803449,-0.68633 -1.429867,-0.68633 z"
     style="font-style:normal;font-variant:normal;font-weight:bold;font-stretch:normal;font-size:17.9409px;line-height:1;font-family:'verdana pro';-inkscape-font-specification:'verdana pro Bold';text-align:center;letter-spacing:0px;word-spacing:0px;text-anchor:middle;fill:#004cff;fill-opacity:1;stroke:#004cff;stroke-width:0.515;stroke-miterlimit:4;stroke-dasharray:none;stroke-opacity:1"
     id="path2545"
     inkscape:connector-curvature="0"
     sodipodi:nodetypes="cssssccscscsccscscscscs" /><path
     sodipodi:nodetypes="cssssccscscsccscscscscs"
     inkscape:connector-curvature="0"
     id="path2547"
     style="font-style:normal;font-variant:normal;font-weight:bold;font-stretch:normal;font-size:17.9409px;line-height:1;font-family:'verdana pro';-inkscape-font-specification:'verdana pro Bold';text-align:center;letter-spacing:0px;word-spacing:0px;text-anchor:middle;fill:#008fff;fill-opacity:1;stroke:#004cff;stroke-width:0.515;stroke-miterlimit:4;stroke-dasharray:none;stroke-opacity:1"
     d="m -22.467082,904.1312 c 0,0 0.87941,3.41897 0,4.80435 -0.522542,0.82318 -3.012225,0.70575 -2.925099,0 0.05717,-0.46306 -0.774992,-9.1035 0,-12.63185 0.209177,-0.95234 2.235646,-0.68946 2.925099,0 0.315838,0.31584 0,1.33998 0,1.33998 0.403086,-0.53381 0.849749,-0.926 1.339989,-1.17658 0.49024,-0.25601 1.054016,-0.38402 1.691328,-0.38402 1.127552,0 2.053561,0.44939 2.778026,1.34817 0.724466,0.89332 1.086699,2.04539 1.086699,3.45618 0,1.41081 -0.362233,2.5656 -1.086699,3.46437 -0.724465,0.89333 -1.650474,1.33999 -2.778026,1.33999 -0.637312,0 -1.201088,-0.12528 -1.691328,-0.37585 -0.49024,-0.25602 -0.936903,-0.65093 -1.339989,-1.18474 z m 1.944618,-5.92374 c -0.626417,0 -1.108487,0.2315 -1.446208,0.6945 -0.332273,0.45756 -0.49841,1.11938 -0.49841,1.98547 0,0.8661 0.166137,1.53064 0.49841,1.99365 0.337721,0.45755 0.819791,0.68633 1.446208,0.68633 0.626418,0 1.10304,-0.22878 1.429867,-0.68633 0.332274,-0.45756 0.498411,-1.1221 0.498411,-1.99365 0,-0.87153 -0.166137,-1.53608 -0.498411,-1.99364 -0.326827,-0.45755 -0.803449,-0.68633 -1.429867,-0.68633 z" /><text
     xml:space="preserve"
     style="font-style:normal;font-weight:bold;font-size:16.5234px;line-height:1;font-family:'Cambria Math';-inkscape-font-specification:'Cambria Math Bold';text-align:center;letter-spacing:0px;word-spacing:0px;text-anchor:middle;fill:#004cff;fill-opacity:1;stroke:#004cff;stroke-width:0.515;stroke-miterlimit:4;stroke-dasharray:none;stroke-opacity:1"
     x="-50.309578"
     y="866.49121"
     id="text2551"
     transform="matrix(0.95759901,-0.03919145,0.04266749,1.0425322,0,0)"><tspan
       sodipodi:role="line"
       x="-50.309578"
       y="866.49121"
       style="font-style:normal;font-variant:normal;font-weight:bold;font-stretch:normal;font-family:'verdana pro';-inkscape-font-specification:'verdana pro Bold';fill:#004cff;fill-opacity:1;stroke:#004cff;stroke-width:0.515;stroke-miterlimit:4;stroke-dasharray:none;stroke-opacity:1"
       id="tspan2549">o</tspan></text><text
     transform="matrix(0.95759901,-0.03919145,0.04266749,1.0425322,0,0)"
     id="text2555"
     y="866.44971"
     x="-51.412922"
     style="font-style:normal;font-weight:bold;font-size:16.5234px;line-height:1;font-family:'Cambria Math';-inkscape-font-specification:'Cambria Math Bold';text-align:center;letter-spacing:0px;word-spacing:0px;text-anchor:middle;fill:#008fff;fill-opacity:1;stroke:#004cff;stroke-width:0.515;stroke-miterlimit:4;stroke-dasharray:none;stroke-opacity:1"
     xml:space="preserve"><tspan
       id="tspan2553"
       style="font-style:normal;font-variant:normal;font-weight:bold;font-stretch:normal;font-family:'verdana pro';-inkscape-font-specification:'verdana pro Bold';fill:#008fff;fill-opacity:1;stroke:#004cff;stroke-width:0.515;stroke-miterlimit:4;stroke-dasharray:none;stroke-opacity:1"
       y="866.44971"
       x="-51.412922"
       sodipodi:role="line">o</tspan></text><path
     d="m 2.7779495,899.04976 v 5.71196 h -3.01511097 v -0.92966 -3.44225 c 0,-0.80961 -0.01954,-1.36796 -0.05862,-1.67506 -0.03351,-0.3071 -0.09492,-0.53323 -0.184256,-0.6784 -0.117254,-0.19542 -0.276385,-0.34618 -0.477393,-0.45226 -0.20100803,-0.11168 -0.42993203,-0.16752 -0.68677503,-0.16752 -0.625356,0 -1.116708,0.24289 -1.474054,0.72866 -0.357348,0.48018 -0.536021,1.14742 -0.536021,2.0017 v 4.61479 h -2.998361 c 0.485881,0.29153 -0.848504,-6.35189 0,-9.38034 0.269642,-0.9624 2.291641,-0.70672 2.998361,0 0.323748,0.32375 0,1.37355 0,1.37355 0.452267,-0.54719 0.932451,-0.94921 1.440554,-1.20605 0.508102,-0.26243 1.069248,-0.39364 1.68343703,-0.39364 1.083206,0 1.90398797,0.33222 2.46234197,0.99666 0.563938,0.66444 0.845906,1.6304 0.845906,2.89786 z"
     style="font-style:normal;font-variant:normal;font-weight:bold;font-stretch:normal;font-size:21.3117px;line-height:1;font-family:'verdana pro';-inkscape-font-specification:'verdana pro Bold';text-align:center;letter-spacing:0px;word-spacing:0px;text-anchor:middle;fill:#004cff;fill-opacity:1;stroke:#004cff;stroke-width:0.515;stroke-miterlimit:4;stroke-dasharray:none;stroke-opacity:1"
     id="path2557"
     inkscape:connector-curvature="0"
     sodipodi:nodetypes="ccccscccscsccssccsccc" /><path
     sodipodi:nodetypes="ccccscccscsccssccsccc"
     inkscape:connector-curvature="0"
     id="path2559"
     style="font-style:normal;font-variant:normal;font-weight:bold;font-stretch:normal;font-size:21.3117px;line-height:1;font-family:'verdana pro';-inkscape-font-specification:'verdana pro Bold';text-align:center;letter-spacing:0px;word-spacing:0px;text-anchor:middle;fill:#008fff;fill-opacity:1;stroke:#004cff;stroke-width:0.515;stroke-miterlimit:4;stroke-dasharray:none;stroke-opacity:1"
     d="m 1.7196165,899.04976 v 5.71196 h -3.015112 v -0.92966 -3.44225 c 0,-0.80961 -0.01954,-1.36796 -0.05862,-1.67506 -0.03351,-0.3071 -0.09492,-0.53323 -0.184257,-0.6784 -0.117254,-0.19542 -0.276385,-0.34618 -0.477393,-0.45226 -0.201008,-0.11168 -0.429932,-0.16752 -0.686775,-0.16752 -0.625356,0 -1.116708,0.24289 -1.474054,0.72866 -0.357347,0.48018 -0.536021,1.14742 -0.536021,2.0017 v 4.61479 h -2.998361 c 0.485881,0.29153 -0.848504,-6.35189 0,-9.38034 0.269642,-0.9624 2.291641,-0.70672 2.998361,0 0.323748,0.32375 0,1.37355 0,1.37355 0.452267,-0.54719 0.932451,-0.94921 1.440554,-1.20605 0.508102,-0.26243 1.069248,-0.39364 1.683437,-0.39364 1.08320703,0 1.90398803,0.33222 2.46234203,0.99666 0.56393797,0.66444 0.84590597,1.6304 0.84590597,2.89786 z" /><path
     d="m 10.447354,900.05014 c 0,0 0.11699,-0.0774 -0.0662,0.13103 -1.5032945,1.71022 -6.3117295,0.75319 -6.3117295,0.75319 0.06604,0.72818 0.29718,1.27432 0.693419,1.63841 0.39624,0.36409 0.94996,0.54613 1.661159,0.54613 0.57404,0 1.160779,-0.0954 1.760218,-0.28607 0.60452,-0.19649 1.8592795,-1.70658 1.8592795,-0.88421 v 2.39259 c 0,0.78463 -1.2903195,0.48546 -1.9354795,0.62415 -0.645159,0.14449 -1.290318,0.21673 -1.935478,0.21673 -1.544318,0 -2.745737,-0.445 -3.604256,-1.335 -0.853439,-0.89578 -1.280159,-2.14987 -1.280159,-3.76228 0,-1.5835 0.4191,-2.82892 1.257299,-3.73625 0.843279,-0.90734 2.001518,-1.36101 3.474717,-1.36101 1.341118,0 2.412997,0.45944 3.215637,1.37834 0.8077195,0.9189 1.2115795,2.14698 1.2115795,3.68425 z m -2.8041585,-1.03159 c 0,-0.58947 -0.152399,-1.06337 -0.4572,-1.42168 -0.299719,-0.3641 -0.693419,-0.54614 -1.181098,-0.54614 -0.52832,0 -0.95758,0.17048 -1.287779,0.51146 -0.3302,0.33519 -0.535939,0.82065 -0.61722,1.45636 z"
     style="font-style:normal;font-variant:normal;font-weight:bold;font-stretch:normal;font-size:21.3117px;line-height:1;font-family:'verdana pro';-inkscape-font-specification:'verdana pro Bold';text-align:center;letter-spacing:0px;word-spacing:0px;text-anchor:middle;fill:#004cff;fill-opacity:1;stroke:#004cff;stroke-width:0.515;stroke-miterlimit:4;stroke-dasharray:none;stroke-opacity:1"
     id="path2561"
     inkscape:connector-curvature="0"
     sodipodi:nodetypes="ssccscsscscscscsccsccc" /><path
     sodipodi:nodetypes="ssccscsscscscscsccsccc"
     inkscape:connector-curvature="0"
     id="path2563"
     style="font-style:normal;font-variant:normal;font-weight:bold;font-stretch:normal;font-size:21.3117px;line-height:1;font-family:'verdana pro';-inkscape-font-specification:'verdana pro Bold';text-align:center;letter-spacing:0px;word-spacing:0px;text-anchor:middle;fill:#008fff;fill-opacity:1;stroke:#004cff;stroke-width:0.515;stroke-miterlimit:4;stroke-dasharray:none;stroke-opacity:1"
     d="m 9.3890205,900.05014 c 0,0 0.11699,-0.0774 -0.0662,0.13103 -1.503294,1.71022 -6.311729,0.75319 -6.311729,0.75319 0.06604,0.72818 0.29718,1.27432 0.693419,1.63841 0.39624,0.36409 0.94996,0.54613 1.661159,0.54613 0.57404,0 1.160779,-0.0954 1.760218,-0.28607 0.60452,-0.19649 1.859279,-1.70658 1.859279,-0.88421 v 2.39259 c 0,0.78463 -1.290319,0.48546 -1.935479,0.62415 -0.645159,0.14449 -1.290318,0.21673 -1.935478,0.21673 -1.544318,0 -2.745737,-0.445 -3.604256,-1.335 -0.85343897,-0.89578 -1.28015897,-2.14987 -1.28015897,-3.76228 0,-1.5835 0.4191,-2.82892 1.25729897,-3.73625 0.843279,-0.90734 2.001518,-1.36101 3.474717,-1.36101 1.341118,0 2.412997,0.45944 3.215637,1.37834 0.807719,0.9189 1.211579,2.14698 1.211579,3.68425 z m -2.804158,-1.03159 c 0,-0.58947 -0.152399,-1.06337 -0.4572,-1.42168 -0.299719,-0.3641 -0.693419,-0.54614 -1.181098,-0.54614 -0.52832,0 -0.95758,0.17048 -1.287779,0.51146 -0.3302,0.33519 -0.535939,0.82065 -0.61722,1.45636 z" /><path
     d="m 22.011308,892.73045 c 1.008872,0.2016 0,3.08645 0,3.08645 -0.05541,0.16624 2.578824,-0.36876 3.581442,0 0.777317,0.2859 0.827903,2.50782 0,2.48469 -1.373669,-0.0383 -3.658902,-0.12911 -3.581442,0 v 4.61025 c 0,0.5047 0.100293,0.84764 0.300879,1.02882 0.200587,0.1747 0.598526,0.26206 1.193815,0.26206 0,0 1.364934,-1.17989 1.785868,-0.75896 0.585644,0.58564 0.585644,1.89904 0,2.48468 -0.702318,0.70232 -2.979683,0.75896 -2.979683,0.75896 -1.371753,0 -2.345569,-0.28471 -2.921446,-0.85411 -0.569408,-0.57588 -0.854112,-1.5497 -0.854112,-2.92145 v -4.61025 h -1.727633 v -2.48469 h 1.727633 c 0,0 -0.851915,-2.50964 0,-3.08645 0.739398,-0.50062 2.499651,-0.19484 3.474679,0 z"
     style="font-style:normal;font-variant:normal;font-weight:bold;font-stretch:normal;font-size:21.3117px;line-height:1;font-family:'verdana pro';-inkscape-font-specification:'verdana pro Bold';text-align:center;letter-spacing:0px;word-spacing:0px;text-anchor:middle;fill:#004cff;fill-opacity:1;stroke:#004cff;stroke-width:0.515;stroke-miterlimit:4;stroke-dasharray:none;stroke-opacity:1"
     id="path2565"
     inkscape:connector-curvature="0"
     sodipodi:nodetypes="scsscscsssscsccccss" /><path
     sodipodi:nodetypes="ccccscccscsccssccsccc"
     inkscape:connector-curvature="0"
     id="path2567"
     style="font-style:normal;font-variant:normal;font-weight:bold;font-stretch:normal;font-size:21.3117px;line-height:1;font-family:'verdana pro';-inkscape-font-specification:'verdana pro Bold';text-align:center;letter-spacing:0px;word-spacing:0px;text-anchor:middle;fill:#004cff;fill-opacity:1;stroke:#004cff;stroke-width:0.514579;stroke-opacity:1"
     d="m 18.570206,899.32589 v 5.71196 h -3.015112 v -0.92966 -3.44225 c 0,-0.80961 -0.01954,-1.36796 -0.05862,-1.67506 -0.03351,-0.3071 -0.09492,-0.53323 -0.184257,-0.6784 -0.117254,-0.19542 -0.276385,-0.34618 -0.477393,-0.45226 -0.201008,-0.11168 -0.429932,-0.16752 -0.686775,-0.16752 -0.625356,0 -1.116708,0.24289 -1.474054,0.72866 -0.357348,0.48018 -0.536021,1.14742 -0.536021,2.0017 v 4.61479 H 9.1396125 c 0.485881,0.29153 -0.848504,-6.35189 0,-9.38034 0.269642,-0.9624 2.2916415,-0.70672 2.9983615,0 0.323748,0.32375 0,1.37355 0,1.37355 0.452267,-0.54719 0.932451,-0.94921 1.440554,-1.20605 0.508102,-0.26243 1.069248,-0.39364 1.683437,-0.39364 1.083207,0 1.903988,0.33222 2.462342,0.99666 0.563938,0.66444 0.845906,1.6304 0.845906,2.89786 z" /><path
     d="m 17.511873,899.32589 v 5.71196 h -3.015112 v -0.92966 -3.44225 c 0,-0.80961 -0.01954,-1.36796 -0.05862,-1.67506 -0.03351,-0.3071 -0.09492,-0.53323 -0.184257,-0.6784 -0.117254,-0.19542 -0.276385,-0.34618 -0.477393,-0.45226 -0.201008,-0.11168 -0.429932,-0.16752 -0.686775,-0.16752 -0.625356,0 -1.116708,0.24289 -1.474054,0.72866 -0.357348,0.48018 -0.536021,1.14742 -0.536021,2.0017 v 4.61479 H 8.0812795 c 0.485881,0.29153 -0.848504,-6.35189 0,-9.38034 0.269642,-0.9624 2.2916415,-0.70672 2.9983615,0 0.323748,0.32375 0,1.37355 0,1.37355 0.452267,-0.54719 0.932451,-0.94921 1.440554,-1.20605 0.508102,-0.26243 1.069248,-0.39364 1.683437,-0.39364 1.083207,0 1.903988,0.33222 2.462342,0.99666 0.563938,0.66444 0.845906,1.6304 0.845906,2.89786 z"
     style="font-style:normal;font-variant:normal;font-weight:bold;font-stretch:normal;font-size:21.3117px;line-height:1;font-family:'verdana pro';-inkscape-font-specification:'verdana pro Bold';text-align:center;letter-spacing:0px;word-spacing:0px;text-anchor:middle;fill:#008fff;fill-opacity:1;stroke:#004cff;stroke-width:0.514579;stroke-opacity:1"
     id="path2569"
     inkscape:connector-curvature="0"
     sodipodi:nodetypes="ccccscccscsccssccsccc" /><path
     sodipodi:nodetypes="scsscscsssscsccccss"
     inkscape:connector-curvature="0"
     id="path2571"
     style="font-style:normal;font-variant:normal;font-weight:bold;font-stretch:normal;font-size:21.3117px;line-height:1;font-family:'verdana pro';-inkscape-font-specification:'verdana pro Bold';text-align:center;letter-spacing:0px;word-spacing:0px;text-anchor:middle;fill:#008fff;fill-opacity:1;stroke:#004cff;stroke-width:0.515;stroke-miterlimit:4;stroke-dasharray:none;stroke-opacity:1"
     d="m 21.482141,892.20128 c 1.008872,0.2016 0,3.08645 0,3.08645 -0.05541,0.16624 2.578824,-0.36876 3.581442,0 0.777317,0.2859 0.827903,2.50782 0,2.48469 -1.373669,-0.0383 -3.658902,-0.12911 -3.581442,0 v 4.61025 c 0,0.5047 0.100293,0.84764 0.300879,1.02882 0.200587,0.1747 0.598526,0.26206 1.193815,0.26206 0,0 1.364934,-1.17989 1.785868,-0.75896 0.585644,0.58564 0.585644,1.89904 0,2.48468 -0.702318,0.70232 -2.979683,0.75896 -2.979683,0.75896 -1.371753,0 -2.345569,-0.28471 -2.921446,-0.85411 -0.569408,-0.57588 -0.854112,-1.5497 -0.854112,-2.92145 v -4.61025 h -1.727633 v -2.48469 h 1.727633 c 0,0 -0.851915,-2.50964 0,-3.08645 0.739398,-0.50062 2.499651,-0.19484 3.474679,0 z" /><path
     sodipodi:nodetypes="ssccscsscscscscsccsccc"
     inkscape:connector-curvature="0"
     id="path2573"
     style="font-style:normal;font-variant:normal;font-weight:bold;font-stretch:normal;font-size:21.3117px;line-height:1;font-family:'verdana pro';-inkscape-font-specification:'verdana pro Bold';text-align:center;letter-spacing:0px;word-spacing:0px;text-anchor:middle;fill:#004cff;fill-opacity:1;stroke:#004cff;stroke-width:0.515;stroke-miterlimit:4;stroke-dasharray:none;stroke-opacity:1"
     d="m 33.828503,901.71888 c 0,0 0.11699,-0.0774 -0.0662,0.13103 -1.503294,1.71022 -6.311729,0.75319 -6.311729,0.75319 0.06604,0.72818 0.29718,1.27432 0.693419,1.63841 0.39624,0.36409 0.94996,0.54613 1.661159,0.54613 0.57404,0 1.160779,-0.0954 1.760218,-0.28607 0.60452,-0.19649 1.859279,-1.70658 1.859279,-0.88421 v 2.39259 c 0,0.78463 -1.290319,0.48546 -1.935479,0.62415 -0.645159,0.14449 -1.290318,0.21673 -1.935478,0.21673 -1.544318,0 -2.745737,-0.445 -3.604256,-1.335 -0.853439,-0.89578 -1.280159,-2.14987 -1.280159,-3.76228 0,-1.5835 0.4191,-2.82892 1.257299,-3.73625 0.843279,-0.90734 2.001518,-1.36101 3.474717,-1.36101 1.341118,0 2.412997,0.45944 3.215637,1.37834 0.807719,0.9189 1.211579,2.14698 1.211579,3.68425 z m -2.804158,-1.03159 c 0,-0.58947 -0.152399,-1.06337 -0.4572,-1.42168 -0.299719,-0.3641 -0.693419,-0.54614 -1.181098,-0.54614 -0.52832,0 -0.95758,0.17048 -1.287779,0.51146 -0.3302,0.33519 -0.535939,0.82065 -0.61722,1.45636 z" /><path
     d="m 32.77017,901.71888 c 0,0 0.11699,-0.0774 -0.0662,0.13103 -1.503294,1.71022 -6.311729,0.75319 -6.311729,0.75319 0.06604,0.72818 0.29718,1.27432 0.693419,1.63841 0.39624,0.36409 0.94996,0.54613 1.661159,0.54613 0.57404,0 1.160779,-0.0954 1.760218,-0.28607 0.60452,-0.19649 1.859279,-1.70658 1.859279,-0.88421 v 2.39259 c 0,0.78463 -1.290319,0.48546 -1.935479,0.62415 -0.645159,0.14449 -1.290318,0.21673 -1.935478,0.21673 -1.544318,0 -2.745737,-0.445 -3.604256,-1.335 -0.853439,-0.89578 -1.280159,-2.14987 -1.280159,-3.76228 0,-1.5835 0.4191,-2.82892 1.257299,-3.73625 0.843279,-0.90734 2.001518,-1.36101 3.474717,-1.36101 1.341118,0 2.412997,0.45944 3.215637,1.37834 0.807719,0.9189 1.211579,2.14698 1.211579,3.68425 z m -2.804158,-1.03159 c 0,-0.58947 -0.152399,-1.06337 -0.4572,-1.42168 -0.299719,-0.3641 -0.693419,-0.54614 -1.181098,-0.54614 -0.52832,0 -0.95758,0.17048 -1.287779,0.51146 -0.3302,0.33519 -0.535939,0.82065 -0.61722,1.45636 z"
     style="font-style:normal;font-variant:normal;font-weight:bold;font-stretch:normal;font-size:21.3117px;line-height:1;font-family:'verdana pro';-inkscape-font-specification:'verdana pro Bold';text-align:center;letter-spacing:0px;word-spacing:0px;text-anchor:middle;fill:#008fff;fill-opacity:1;stroke:#004cff;stroke-width:0.515;stroke-miterlimit:4;stroke-dasharray:none;stroke-opacity:1"
     id="path2575"
     inkscape:connector-curvature="0"
     sodipodi:nodetypes="ssccscsscscscscsccsccc" /><path
     sodipodi:nodetypes="scscscscsscscssscccccss"
     d="m 14.749847,914.16457 c -0.425409,0.20679 -0.867066,0.36189 -1.324971,0.46529 -0.457904,0.1034 -0.930581,0.15509 -1.418028,0.15509 -1.101926,0 -1.9749,-0.30724 -2.6189213,-0.92172 -0.6440207,-0.61743 -0.9660315,-1.45347 -0.9660315,-2.50813 0,-1.06648 0.3279194,-1.90547 0.9837574,-2.517 0.6558384,-0.61153 1.5539224,-0.91729 2.6942534,-0.91729 0.44018,0 0.861157,0.0414 1.262932,0.12408 0.404728,0.0827 1.143285,-0.0248 1.143285,0.3678 v 1.36928 c 0,0.42469 -0.737079,-0.36632 -1.103403,-0.46972 -0.36337,-0.1034 -0.728217,-0.15509 -1.09454,-0.15509 -0.679473,0 -1.203848,0.19054 -1.573126,0.57163 -0.366325,0.37815 -0.549486,0.92025 -0.549486,1.62631 0,0.70015 0.177254,1.24077 0.531761,1.62187 0.354507,0.38109 0.858202,0.57164 1.511087,0.57164 0.177253,0 0.341212,-0.0103 0.491878,-0.031 0.153619,-0.0236 0.290991,-0.0591 0.412114,-0.10635 v -1.28509 h -1.041364 v -1.14329 c 0,0 2.032117,-0.62668 2.658803,0 0.749924,0.74993 0.420991,2.97702 0,3.18167 z"
     style="font-style:normal;font-variant:normal;font-weight:bold;font-stretch:normal;font-size:11.9512px;line-height:1.25;font-family:'verdana pro';-inkscape-font-specification:'verdana pro Bold';letter-spacing:0px;word-spacing:0px;fill:#cd970c;fill-opacity:1;stroke:#411616;stroke-width:0.226885;stroke-opacity:1"
     id="path2577"
     inkscape:connector-curvature="0" /><path
     sodipodi:nodetypes="ccssssssccccc"
     d="m 19.079919,913.27374 h -2.667666 c 0,0 -0.07397,0.95896 -0.420977,1.20533 -0.466114,0.33092 -1.688809,0.57104 -1.714929,0 -0.10181,-2.22588 1.525417,-4.56304 2.450531,-6.616 0.278546,-0.61813 1.833972,-0.64782 2.033985,0 0.68861,2.23033 2.907094,4.21274 2.45053,6.616 -0.106691,0.56159 -1.249358,0.33169 -1.714928,0 -0.346211,-0.24666 -0.416546,-1.20533 -0.416546,-1.20533 z m -2.242258,-1.22748 h 1.812418 l -0.903993,-2.63222 z"
     style="font-style:normal;font-variant:normal;font-weight:bold;font-stretch:normal;font-size:11.9512px;line-height:1.25;font-family:'verdana pro';-inkscape-font-specification:'verdana pro Bold';letter-spacing:0px;word-spacing:0px;fill:#cd970c;fill-opacity:1;stroke:#411616;stroke-width:0.226885;stroke-opacity:1"
     id="path2579"
     inkscape:connector-curvature="0" /><path
     sodipodi:nodetypes="sscssssccccsss"
     d="m 20.724478,908.33608 c 0.0634,-0.721 1.567623,-0.39921 2.171356,0 1.06988,0.70745 1.506655,3.54065 1.506655,3.54065 0,0 0.443921,-2.83369 1.515518,-3.54065 0.602922,-0.39776 1.995955,-0.70178 2.166925,0 0.495143,2.03241 0.140389,4.70183 0,6.616 -0.03933,0.53622 -1.232817,0.38019 -1.613007,0 -1.140568,-1.14058 0,-4.83902 0,-4.83902 l -1.524381,3.56722 h -1.081247 l -1.52438,-3.56722 c 0,0 1.140567,3.69844 0,4.83902 -0.381234,0.38123 -1.430006,0.50551 -1.617439,0 -0.731645,-1.97329 -0.199514,-4.34708 0,-6.616 z"
     style="font-style:normal;font-variant:normal;font-weight:bold;font-stretch:normal;font-size:11.9512px;line-height:1.25;font-family:'verdana pro';-inkscape-font-specification:'verdana pro Bold';letter-spacing:0px;word-spacing:0px;fill:#cd970c;fill-opacity:1;stroke:#411616;stroke-width:0.226885;stroke-opacity:1"
     id="path2581"
     inkscape:connector-curvature="0" /><path
     sodipodi:nodetypes="sssccssccssss"
     d="m 28.049764,908.04045 c 0.558213,-1.4296 3.518949,-1.08521 4.60416,0 0.303943,0.30395 0.303943,0.98558 0,1.28952 -0.683088,0.68309 -2.898095,0 -2.898095,0 v 1.23192 c 0,0 2.082921,-0.64236 2.725274,0 0.303943,0.30394 0.303943,0.98557 0,1.28952 -0.642353,0.64236 -2.725274,0 -2.725274,0 v 1.51552 c 0,0 2.289519,-0.70607 2.995585,0 0.303943,0.30394 0.303943,0.98557 0,1.28952 -1.108189,1.10819 -4.459558,1.5484 -4.70165,0 -0.317766,-2.03241 -0.909022,-4.28796 0,-6.616 z"
     style="font-style:normal;font-variant:normal;font-weight:bold;font-stretch:normal;font-size:11.9512px;line-height:1.25;font-family:'verdana pro';-inkscape-font-specification:'verdana pro Bold';letter-spacing:0px;word-spacing:0px;fill:#cd970c;fill-opacity:1;stroke:#411616;stroke-width:0.226885;stroke-opacity:1"
     id="path2583"
     inkscape:connector-curvature="0" /><path
     sodipodi:nodetypes="sscsssccccscsssscscsccccssscs"
     d="m 37.306381,908.8668 c 0.164944,0.46901 0,1.49149 0,1.49149 -0.313561,0.25673 -0.764631,-0.30364 -1.132787,-0.39175 -0.368156,-0.0881 -0.715858,-0.13216 -1.043107,-0.13216 -0.434236,0 -0.755192,0.0598 -0.962869,0.17937 -0.207678,0.11956 -0.311516,0.30521 -0.311516,0.55694 0,0.18881 0.06922,0.3367 0.207677,0.44368 0.141599,0.10384 0.396475,0.19351 0.764631,0.26903 l 0.774071,0.15576 c 0.783511,0.15734 1.340465,0.39648 1.67086,0.71743 0.330396,0.32096 0.495595,0.77723 0.495595,1.36879 0,0.77722 -0.231278,1.3562 -0.693832,1.73694 -0.459409,0.3776 -1.16268,0.56639 -2.109815,0.56639 -0.446822,0 -0.895217,-0.0425 -1.345184,-0.12743 -0.449968,-0.085 -1.349905,0.10227 -1.349905,-0.3776 v -1.53398 c 0,-0.50957 0.884203,0.42007 1.302705,0.54279 0.421649,0.11957 0.827563,0.17936 1.217745,0.17936 0.396476,0 0.700126,-0.0661 0.91095,-0.19824 0.210824,-0.13216 0.316236,-0.32095 0.316236,-0.56639 0,-0.22027 -0.07238,-0.39018 -0.217117,-0.50975 -0.141598,-0.11957 -0.426369,-0.22657 -0.85431,-0.32096 l -0.703272,-0.15577 c -0.704845,-0.15103 -1.220892,-0.39175 -1.548142,-0.72215 -0.324103,-0.33039 -0.486154,-0.77563 -0.486154,-1.33574 0,-0.70169 0.226557,-1.24134 0.679672,-1.61894 0.453115,-0.3776 1.104466,-0.56639 1.954056,-0.56639 0.387037,0 0.785085,0.0299 1.194147,0.0897 0.409062,0.0566 0.956104,-0.63199 1.269665,0.2596 z"
     style="font-style:normal;font-variant:normal;font-weight:bold;font-stretch:normal;font-size:11.9512px;line-height:1.25;font-family:'verdana pro';-inkscape-font-specification:'verdana pro Bold';letter-spacing:0px;word-spacing:0px;fill:#cd970c;fill-opacity:1;stroke:#411616;stroke-width:0.241661;stroke-opacity:1"
     id="path2585"
     inkscape:connector-curvature="0" /><path
     inkscape:connector-curvature="0"
     id="path2587"
     style="font-style:normal;font-variant:normal;font-weight:bold;font-stretch:normal;font-size:11.9512px;line-height:1.25;font-family:'verdana pro';-inkscape-font-specification:'verdana pro Bold';letter-spacing:0px;word-spacing:0px;fill:#ffff4d;fill-opacity:1;stroke:#411616;stroke-width:0.226885;stroke-opacity:1"
     d="m 14.331766,913.79761 c -0.425409,0.20679 -0.867066,0.36189 -1.324971,0.46529 -0.457905,0.1034 -0.930581,0.15509 -1.418028,0.15509 -1.101926,0 -1.9748999,-0.30724 -2.6189214,-0.92172 -0.6440207,-0.61743 -0.9660315,-1.45347 -0.9660315,-2.50813 0,-1.06648 0.3279194,-1.90547 0.9837574,-2.517 0.6558381,-0.61153 1.5539225,-0.91729 2.6942535,-0.91729 0.44018,0 0.861157,0.0414 1.262932,0.12408 0.404728,0.0827 1.143285,-0.0248 1.143285,0.3678 v 1.36928 c 0,0.42469 -0.737079,-0.36632 -1.103403,-0.46972 -0.36337,-0.1034 -0.728217,-0.15509 -1.094541,-0.15509 -0.679472,0 -1.203847,0.19054 -1.573125,0.57163 -0.3663247,0.37815 -0.5494865,0.92025 -0.5494865,1.62631 0,0.70015 0.177254,1.24077 0.5317615,1.62187 0.354507,0.38109 0.858202,0.57164 1.511086,0.57164 0.177254,0 0.341213,-0.0103 0.491879,-0.031 0.153619,-0.0236 0.290991,-0.0591 0.412114,-0.10635 v -1.28509 h -1.041365 v -1.14329 c 0,0 2.032118,-0.62668 2.658804,0 0.749924,0.74993 0.420991,2.97702 0,3.18167 z"
     sodipodi:nodetypes="scscscscsscscssscccccss" /><path
     inkscape:connector-curvature="0"
     id="path2589"
     style="font-style:normal;font-variant:normal;font-weight:bold;font-stretch:normal;font-size:11.9512px;line-height:1.25;font-family:'verdana pro';-inkscape-font-specification:'verdana pro Bold';letter-spacing:0px;word-spacing:0px;fill:#ffff4d;fill-opacity:1;stroke:#411616;stroke-width:0.226885;stroke-opacity:1"
     d="m 18.661838,912.90678 h -2.667666 c 0,0 -0.07397,0.95896 -0.420977,1.20533 -0.466114,0.33092 -1.688809,0.57104 -1.714929,0 -0.10181,-2.22588 1.525417,-4.56304 2.450531,-6.616 0.278546,-0.61813 1.833972,-0.64782 2.033985,0 0.68861,2.23033 2.907094,4.21274 2.45053,6.616 -0.106691,0.56159 -1.249358,0.33169 -1.714928,0 -0.346211,-0.24666 -0.416546,-1.20533 -0.416546,-1.20533 z M 16.41958,911.6793 h 1.812418 l -0.903993,-2.63222 z"
     sodipodi:nodetypes="ccssssssccccc" /><path
     inkscape:connector-curvature="0"
     id="path2591"
     style="font-style:normal;font-variant:normal;font-weight:bold;font-stretch:normal;font-size:11.9512px;line-height:1.25;font-family:'verdana pro';-inkscape-font-specification:'verdana pro Bold';letter-spacing:0px;word-spacing:0px;fill:#ffff4d;fill-opacity:1;stroke:#411616;stroke-width:0.226885;stroke-opacity:1"
     d="m 20.306397,907.96912 c 0.0634,-0.721 1.567623,-0.39921 2.171356,0 1.06988,0.70745 1.506655,3.54065 1.506655,3.54065 0,0 0.443921,-2.83369 1.515518,-3.54065 0.602922,-0.39776 1.995954,-0.70178 2.166925,0 0.495142,2.03241 0.140389,4.70183 0,6.616 -0.03933,0.53622 -1.232818,0.38019 -1.613007,0 -1.140568,-1.14058 0,-4.83902 0,-4.83902 l -1.524381,3.56722 h -1.081247 l -1.52438,-3.56722 c 0,0 1.140567,3.69844 0,4.83902 -0.381234,0.38123 -1.430006,0.50551 -1.617439,0 -0.731645,-1.97329 -0.199514,-4.34708 0,-6.616 z"
     sodipodi:nodetypes="sscssssccccsss" /><path
     inkscape:connector-curvature="0"
     id="path2593"
     style="font-style:normal;font-variant:normal;font-weight:bold;font-stretch:normal;font-size:11.9512px;line-height:1.25;font-family:'verdana pro';-inkscape-font-specification:'verdana pro Bold';letter-spacing:0px;word-spacing:0px;fill:#ffff4d;fill-opacity:1;stroke:#411616;stroke-width:0.226885;stroke-opacity:1"
     d="m 27.631683,907.67349 c 0.558213,-1.4296 3.518949,-1.08521 4.60416,0 0.303943,0.30395 0.303943,0.98558 0,1.28952 -0.683088,0.68309 -2.898095,0 -2.898095,0 v 1.23192 c 0,0 2.082921,-0.64236 2.725274,0 0.303943,0.30394 0.303943,0.98557 0,1.28952 -0.642353,0.64236 -2.725274,0 -2.725274,0 v 1.51552 c 0,0 2.289519,-0.70607 2.995585,0 0.303943,0.30394 0.303943,0.98557 0,1.28952 -1.10819,1.10819 -4.459558,1.5484 -4.70165,0 -0.317766,-2.03241 -0.909022,-4.28796 0,-6.616 z"
     sodipodi:nodetypes="sssccssccssss" /><path
     inkscape:connector-curvature="0"
     id="path2595"
     style="font-style:normal;font-variant:normal;font-weight:bold;font-stretch:normal;font-size:11.9512px;line-height:1.25;font-family:'verdana pro';-inkscape-font-specification:'verdana pro Bold';letter-spacing:0px;word-spacing:0px;fill:#ffff4d;fill-opacity:1;stroke:#411616;stroke-width:0.241661;stroke-opacity:1"
     d="m 36.8883,908.49984 c 0.164944,0.46901 0,1.49149 0,1.49149 -0.313561,0.25673 -0.764631,-0.30364 -1.132787,-0.39175 -0.368156,-0.0881 -0.715858,-0.13216 -1.043107,-0.13216 -0.434236,0 -0.755192,0.0598 -0.962869,0.17937 -0.207678,0.11956 -0.311516,0.30521 -0.311516,0.55694 0,0.18881 0.06922,0.3367 0.207677,0.44368 0.141599,0.10384 0.396475,0.19351 0.764631,0.26903 l 0.774071,0.15576 c 0.783511,0.15734 1.340464,0.39648 1.67086,0.71743 0.330396,0.32096 0.495595,0.77723 0.495595,1.36879 0,0.77722 -0.231278,1.3562 -0.693832,1.73694 -0.459409,0.3776 -1.16268,0.56639 -2.109816,0.56639 -0.446821,0 -0.895216,-0.0425 -1.345183,-0.12743 -0.449968,-0.085 -1.349905,0.10227 -1.349905,-0.3776 v -1.53398 c 0,-0.50957 0.884203,0.42007 1.302705,0.54279 0.421648,0.11957 0.827563,0.17936 1.217745,0.17936 0.396476,0 0.700126,-0.0661 0.91095,-0.19824 0.210824,-0.13216 0.316236,-0.32095 0.316236,-0.56639 0,-0.22027 -0.07238,-0.39018 -0.217117,-0.50975 -0.141598,-0.11957 -0.426369,-0.22657 -0.85431,-0.32096 l -0.703272,-0.15577 c -0.704845,-0.15103 -1.220892,-0.39175 -1.548142,-0.72215 -0.324103,-0.33039 -0.486154,-0.77563 -0.486154,-1.33574 0,-0.70169 0.226557,-1.24134 0.679672,-1.61894 0.453115,-0.3776 1.104466,-0.56639 1.954056,-0.56639 0.387036,0 0.785085,0.0299 1.194147,0.0897 0.409062,0.0566 0.956104,-0.63199 1.269665,0.2596 z"
     sodipodi:nodetypes="sscsssccccscsssscscsccccssscs" /><path
     d="m -22.567288,873.76686 c 0,0 1.437535,-3.35719 3.516693,-1.22938 2.079159,2.12781 4.643395,11.79331 4.643395,11.79331 l -3.516694,1.22939 z"
     style="font-style:normal;font-variant:normal;font-weight:bold;font-stretch:normal;font-size:21.3117px;line-height:1;font-family:'verdana pro';-inkscape-font-specification:'verdana pro Bold';text-align:center;letter-spacing:0px;word-spacing:0px;text-anchor:middle;fill:#008fff;fill-opacity:1;stroke:#004cff;stroke-width:0.515;stroke-miterlimit:4;stroke-dasharray:none;stroke-opacity:1"
     id="path2597"
     inkscape:connector-curvature="0"
     sodipodi:nodetypes="czccc" /><path
     style="font-style:normal;font-weight:normal;font-size:11.9512px;line-height:1.25;font-family:sans-serif;letter-spacing:0px;word-spacing:0px;fill:#004cff;fill-opacity:1;stroke:#004cff;stroke-width:0.0367356;stroke-linecap:butt;stroke-linejoin:miter;stroke-miterlimit:4;stroke-dasharray:none;stroke-opacity:1"
     d="m 37.790567,897.77433 c 0.04473,-0.0358 1.353578,-0.0681 1.353578,-0.0681 l 0.03182,1.92357 -1.353566,0.0204 z"
     id="path2822"
     inkscape:connector-curvature="0" /><path
     inkscape:connector-curvature="0"
     id="path2824"
     d="m 38.413581,883.44502 c 0.04473,-0.0358 1.353578,-0.0681 1.353578,-0.0681 l 0.03182,1.92357 -1.353566,0.0204 z"
     style="font-style:normal;font-weight:normal;font-size:11.9512px;line-height:1.25;font-family:sans-serif;letter-spacing:0px;word-spacing:0px;fill:#004cff;fill-opacity:1;stroke:#004cff;stroke-width:0.0367356;stroke-linecap:butt;stroke-linejoin:miter;stroke-miterlimit:4;stroke-dasharray:none;stroke-opacity:1" /></g></svg>
