<?xml version="1.0" encoding="UTF-8" standalone="no"?>
<svg
   width="456"
   height="456"
   viewBox="0 0 456 456"
   version="1.1"
   xml:space="preserve"
   style="fill-rule:evenodd;clip-rule:evenodd;stroke-linejoin:round;stroke-miterlimit:2;"
   id="svg4"
   sodipodi:docname="appiconfg.svg"
   inkscape:version="1.3 (0e150ed6c4, 2023-07-21)"
   xmlns:inkscape="http://www.inkscape.org/namespaces/inkscape"
   xmlns:sodipodi="http://sodipodi.sourceforge.net/DTD/sodipodi-0.dtd"
   xmlns="http://www.w3.org/2000/svg"
   xmlns:svg="http://www.w3.org/2000/svg"><defs
   id="defs4" /><sodipodi:namedview
   id="namedview4"
   pagecolor="#ffffff"
   bordercolor="#000000"
   borderopacity="0.25"
   inkscape:showpageshadow="2"
   inkscape:pageopacity="0.0"
   inkscape:pagecheckerboard="0"
   inkscape:deskcolor="#d1d1d1"
   inkscape:zoom="0.63034848"
   inkscape:cx="33.314905"
   inkscape:cy="194.33695"
   inkscape:window-width="1920"
   inkscape:window-height="1009"
   inkscape:window-x="-8"
   inkscape:window-y="-8"
   inkscape:window-maximized="1"
   inkscape:current-layer="svg4" />&#10;    <path
   d="m 98.64955,264.15797 c -2.70293,0 -5.00091,-0.90042 -6.893127,-2.70209 -1.892214,-1.84778 -2.837901,-4.04181 -2.837901,-6.58209 0,-2.58722 0.945687,-4.80389 2.837901,-6.65167 1.892217,-1.84778 4.190197,-2.77167 6.893127,-2.77167 2.74819,0 5.06798,0.92389 6.96019,2.77167 1.93749,1.84778 2.90581,4.06445 2.90581,6.65167 0,2.54028 -0.96832,4.73431 -2.90581,6.58209 -1.89221,1.80167 -4.212,2.70209 -6.96019,2.70209 z"
   style="fill:#af0000;fill-opacity:1;fill-rule:nonzero;stroke-width:0.838376"
   id="path1" />&#10;    <path
   d="m 206.71029,262.6338 h -17.57067 l -46.29091,-73.03006 c -1.17121,-1.84778 -2.14037,-3.76515 -2.90581,-5.75126 h -0.40578 c 0.36051,2.12528 0.54076,6.67515 0.54076,13.6496 v 65.13172 h -15.54349 v -99.36009 h 18.71925 l 44.7374,71.29798 c 1.89222,2.95695 3.1087,4.98917 3.64945,6.09751 h 0.26996 c -0.45021,-2.6325 -0.67573,-7.09015 -0.67573,-13.37293 v -64.02256 h 15.47557 z"
   style="fill:#af0000;fill-opacity:1;fill-rule:nonzero;stroke-width:0.838376"
   id="path2" />&#10;    <path
   d="M 282.40052,262.6338 H 228 v -99.36009 h 52.23835 v 13.99669 h -36.15411 v 28.13085 h 33.31621 v 13.9271 h -33.31621 v 29.37835 h 38.31628 z"
   style="fill:#af0000;fill-opacity:1;fill-rule:nonzero;stroke-width:0.838376"
   id="path3" />&#10;    &#10;</svg>
